<?xml version="1.0" encoding="utf-8"?>
<!-- Generator: Adobe Illustrator 17.1.0, SVG Export Plug-In . SVG Version: 6.00 Build 0)  -->
<!DOCTYPE svg PUBLIC "-//W3C//DTD SVG 1.1//EN" "http://www.w3.org/Graphics/SVG/1.1/DTD/svg11.dtd">
<svg version="1.1" id="Layer_1" xmlns="http://www.w3.org/2000/svg" xmlns:xlink="http://www.w3.org/1999/xlink" x="0px" y="0px"
	 viewBox="0 0 659 206" enable-background="new 0 0 659 206" xml:space="preserve">
<path fill-rule="evenodd" clip-rule="evenodd" fill="#EEEEEE" stroke="#CCCCCC" stroke-width="2" stroke-miterlimit="10" d="
	M104.5,3c54.9,0,99.5,44.5,99.5,99.5c0,54.9-44.5,99.5-99.5,99.5C49.5,201.9,5,157.4,5,102.5C5,47.5,49.5,3,104.5,3L104.5,3z"/>
<path fill="#1A427B" d="M98.7,16.2l-51.6,151C29.2,151.3,18,128.2,18,102.5C18,56.7,53.6,19.2,98.7,16.2L98.7,16.2z"/>
<path fill-rule="evenodd" clip-rule="evenodd" fill="#D22323" d="M55.7,171.7H79l52.8-154.6h-23.4L55.7,171.7L55.7,171.7z
	 M135.7,99.7l28.2-82.6h-23.4l-28.2,82.6H135.7L135.7,99.7z M182,58.4l14.1-41.3h-23.4l-14.1,41.3H182L182,58.4z"/>
<path fill="#1A427B" d="M130.5,173.3h25.1l4.7-14.4h28.4l4.5,14.4h25.1l-29.6-83.6h-28.4L130.5,173.3L130.5,173.3z M174.4,109
	l9.5,31.5h-19.1L174.4,109L174.4,109z M220.1,173.3h38.6c0.4,0,1.2,0,2.2-0.1c1-0.1,2.2-0.2,3.6-0.5c1.4-0.3,2.8-0.7,4.2-1.3
	c1.5-0.6,2.8-1.4,4-2.5c1.2-1.1,2.2-2.5,3-4.1c0.8-1.7,1.2-3.7,1.2-6.1c0-2.8-0.5-5.1-1.3-7c-0.9-1.9-1.9-3.4-3.3-4.5
	c-1.3-1.1-2.7-2-4.1-2.5c-1.4-0.6-2.6-1-3.8-1.2v-0.2c2.2-0.7,4-1.7,5.4-2.9c1.3-1.2,2.3-2.5,3-3.9c0.7-1.4,1.1-2.8,1.3-4.1
	c0.2-1.3,0.3-2.4,0.3-3.3c0-2.6-0.5-4.7-1.4-6.4c-0.9-1.7-2-3-3.5-3.9c-1.4-1-2.9-1.7-4.4-2.1c-1.5-0.4-3-0.7-4.3-0.8
	c-1.3-0.1-2.3-0.2-3-0.1h-37.7V173.3L220.1,173.3z M240.1,138.3v-10h8.6c0.6,0,1.2,0,1.9,0.2c0.7,0.1,1.4,0.3,2,0.7
	c0.6,0.3,1.2,0.8,1.6,1.5c0.4,0.7,0.6,1.5,0.7,2.6c0,1.2-0.2,2.1-0.6,2.8c-0.4,0.7-0.9,1.2-1.6,1.5c-0.6,0.3-1.3,0.6-2,0.6
	c-0.7,0.1-1.3,0.2-1.9,0.1H240.1L240.1,138.3z M240.1,160.8v-11.2h9.2c2.2,0,3.8,0.6,5,1.6c1.2,1,1.7,2.4,1.7,4.1
	c0,0.3,0,0.7-0.1,1.3c-0.1,0.6-0.4,1.2-0.8,1.8c-0.4,0.6-1.1,1.2-2,1.7c-0.9,0.4-2.2,0.7-3.8,0.7H240.1L240.1,160.8z M292.1,173.3
	H313v-42.6h15v-15h-51v15h15V173.3L292.1,173.3z M363,175.5c5.8,0,10.9-0.9,15.2-2.4c4.3-1.6,7.9-3.8,10.8-6.7
	c2.8-2.8,5-6.1,6.4-9.9c1.4-3.7,2.1-7.8,2.1-12.1c0-4.3-0.7-8.3-2.1-12c-1.4-3.7-3.6-7-6.4-9.8c-2.9-2.8-6.4-5-10.8-6.6
	c-4.3-1.6-9.4-2.4-15.2-2.4c-5.8,0-10.9,0.8-15.2,2.4c-4.3,1.6-7.9,3.8-10.8,6.6c-2.8,2.8-5,6.1-6.4,9.8c-1.4,3.7-2.1,7.7-2.1,12
	c0,4.4,0.7,8.5,2.2,12.3c1.5,3.8,3.6,7,6.5,9.8c2.9,2.8,6.5,5,10.8,6.5C352.2,174.7,357.2,175.5,363,175.5L363,175.5z M363,160.5
	c-2.1,0-3.9-0.4-5.4-1c-1.5-0.7-2.7-1.5-3.6-2.6c-0.9-1.1-1.7-2.2-2.2-3.5c-0.5-1.3-0.9-2.5-1.2-3.7c-0.3-1.2-0.4-2.3-0.5-3.2
	c-0.1-0.9-0.1-1.6-0.1-2c0-3.1,0.5-5.8,1.4-8.2c1-2.4,2.4-4.3,4.3-5.6c1.9-1.4,4.3-2,7.2-2.1c2.8,0,5.2,0.7,7.1,2.1
	c1.9,1.4,3.4,3.2,4.3,5.6c1,2.4,1.5,5.1,1.5,8.2c0,0.4,0,1.1-0.1,2c-0.1,0.9-0.2,2-0.5,3.2c-0.2,1.2-0.6,2.4-1.2,3.7
	c-0.5,1.3-1.3,2.4-2.2,3.5c-1,1.1-2.1,1.9-3.6,2.6C366.9,160.1,365.1,160.4,363,160.5L363,160.5z M401.2,173.3h20.9v-25.5l18.7,25.5
	h26.4l-25.9-30.6l23.8-27.1h-25.5l-17.4,23.5v-23.5h-20.9V173.3L401.2,173.3z M488.6,115.7h-20.1v82.7h20.9v-30.9
	c2.6,2.8,5.5,4.9,8.5,6.1c3,1.3,6.2,1.9,9.6,1.8c4.3,0,8.1-0.9,11.4-2.5c3.3-1.7,6.1-3.9,8.4-6.8c2.3-2.9,4-6.2,5.2-9.9
	c1.2-3.7,1.8-7.6,1.8-11.8c0-4.5-0.6-8.6-1.9-12.4c-1.2-3.8-3-7-5.3-9.8c-2.3-2.8-5.2-4.9-8.5-6.4c-3.3-1.5-7-2.3-11.2-2.3
	c-2.7,0-5.2,0.3-7.4,1c-2.2,0.6-4.3,1.6-6.1,3c-1.9,1.4-3.7,3.1-5.4,5.3V115.7L488.6,115.7z M500.3,158.3c-2.5,0-4.5-0.5-6.1-1.4
	c-1.6-0.9-2.9-2.1-3.8-3.5c-0.9-1.4-1.6-2.9-2-4.5c-0.4-1.6-0.6-3.1-0.6-4.4c0-1.4,0.2-2.8,0.6-4.4c0.4-1.6,1.1-3.1,2-4.5
	c0.9-1.4,2.2-2.6,3.8-3.5c1.6-0.9,3.7-1.4,6.1-1.4c2.4,0,4.6,0.6,6.5,1.7c1.9,1.1,3.3,2.7,4.4,4.7c1.1,2,1.6,4.5,1.6,7.3
	c0,2.9-0.6,5.4-1.7,7.5c-1.1,2.1-2.6,3.6-4.5,4.7C504.9,157.7,502.7,158.3,500.3,158.3L500.3,158.3z M582.1,122.7
	c-1.9-2.4-3.9-4.3-5.9-5.7c-2-1.3-4.1-2.3-6.3-2.8c-2.1-0.5-4.4-0.8-6.7-0.7c-3.9,0-7.3,0.6-10.3,1.9c-3,1.2-5.5,2.9-7.6,5
	c-2.1,2.1-3.8,4.5-5.1,7.1c-1.3,2.7-2.3,5.4-2.9,8.3c-0.6,2.9-0.9,5.8-0.9,8.6c0,3.3,0.4,6.5,1.1,9.5c0.8,3,1.9,5.9,3.3,8.5
	c1.5,2.6,3.3,4.9,5.5,6.8c2.2,1.9,4.7,3.5,7.5,4.6c2.8,1.1,6,1.6,9.4,1.7c2.8,0,5.4-0.4,7.7-1.2c2.3-0.8,4.4-1.8,6.3-3.1
	c1.9-1.3,3.5-2.9,4.9-4.7v6.8h20.1v-57.7h-20.1V122.7L582.1,122.7z M570.4,158.3c-2.1,0-4-0.4-5.5-1.2c-1.6-0.8-2.8-1.8-3.9-3.1
	c-1-1.3-1.8-2.8-2.3-4.4c-0.5-1.7-0.8-3.4-0.8-5.2c0-1.7,0.2-3.3,0.7-4.9c0.5-1.6,1.2-3.1,2.2-4.4c1-1.3,2.3-2.4,3.9-3.2
	c1.6-0.8,3.4-1.2,5.6-1.2c2.4,0,4.6,0.6,6.5,1.7c1.9,1.1,3.3,2.7,4.4,4.7c1.1,2,1.6,4.5,1.6,7.3c0,2.9-0.6,5.4-1.7,7.5
	c-1.1,2.1-2.6,3.6-4.5,4.7C574.9,157.7,572.8,158.3,570.4,158.3L570.4,158.3z M620.7,173.3h20.9v-42.6h15v-15h-51v15h15V173.3
	L620.7,173.3z"/>
<path fill="#1A427B" d="M210.6,107h4.8l0.9-2.8h5.4l0.9,2.8h4.8l-5.7-16h-5.4L210.6,107L210.6,107z M219.1,94.7l1.8,6h-3.7
	L219.1,94.7L219.1,94.7z M228.7,91v16h8.2c0.8,0,1.4-0.1,2-0.3c0.6-0.2,1.1-0.4,1.5-0.7c0.4-0.3,0.7-0.6,1-1
	c0.3-0.4,0.4-0.8,0.6-1.2c0.1-0.4,0.2-0.9,0.2-1.3c0-0.6-0.1-1.1-0.3-1.5c-0.2-0.4-0.4-0.8-0.6-1.1c-0.3-0.3-0.5-0.6-0.9-0.8
	c-0.3-0.2-0.6-0.4-0.9-0.5c-0.3-0.1-0.5-0.2-0.7-0.2v0c0.5-0.2,0.9-0.4,1.2-0.7s0.7-0.7,0.9-1.1c0.2-0.4,0.3-0.9,0.3-1.5
	c0-0.3,0-0.6-0.1-1c-0.1-0.4-0.2-0.7-0.4-1.1c-0.2-0.4-0.5-0.7-0.8-1c-0.4-0.3-0.8-0.5-1.4-0.7c-0.6-0.2-1.3-0.3-2.1-0.3H228.7
	L228.7,91z M233.2,97.3v-3.1h1.9c0.5,0,0.9,0.1,1.2,0.2c0.3,0.1,0.5,0.3,0.6,0.6c0.1,0.2,0.2,0.5,0.2,0.8c0,0.2,0,0.3-0.1,0.5
	c-0.1,0.2-0.1,0.3-0.3,0.5c-0.1,0.2-0.4,0.3-0.6,0.4c-0.3,0.1-0.6,0.1-1.1,0.2H233.2L233.2,97.3z M233.2,103.8v-3.3h2.1
	c0.1,0,0.3,0,0.5,0c0.2,0,0.4,0,0.6,0.1c0.2,0,0.4,0.1,0.6,0.2c0.2,0.1,0.3,0.3,0.5,0.5c0.1,0.2,0.2,0.5,0.2,0.8
	c0,0.3-0.1,0.6-0.2,0.8c-0.1,0.2-0.3,0.4-0.5,0.5c-0.2,0.1-0.4,0.2-0.6,0.3c-0.2,0-0.4,0.1-0.6,0.1c-0.2,0-0.4,0-0.5,0H233.2
	L233.2,103.8z M246.5,107h4.5V94.8h3.5V91H243v3.8h3.5V107L246.5,107z M264,107.4c1.1,0,2.2-0.2,3.1-0.5c0.9-0.3,1.7-0.7,2.4-1.2
	c0.7-0.5,1.3-1.1,1.7-1.9c0.5-0.7,0.8-1.5,1-2.3c0.2-0.8,0.3-1.7,0.3-2.6c0-0.9-0.1-1.8-0.3-2.6c-0.2-0.8-0.6-1.6-1-2.3
	c-0.5-0.7-1-1.3-1.7-1.9c-0.7-0.5-1.5-0.9-2.4-1.2c-0.9-0.3-1.9-0.4-3.1-0.4c-1.1,0-2.2,0.2-3.1,0.4c-0.9,0.3-1.7,0.7-2.4,1.2
	c-0.7,0.5-1.3,1.1-1.7,1.9c-0.5,0.7-0.8,1.5-1,2.3c-0.2,0.8-0.3,1.7-0.3,2.6c0,0.9,0.1,1.8,0.4,2.6c0.2,0.8,0.6,1.6,1.1,2.3
	c0.5,0.7,1,1.3,1.7,1.9c0.7,0.5,1.5,0.9,2.4,1.2C261.8,107.3,262.9,107.4,264,107.4L264,107.4z M264,103.6c-0.3,0-0.7,0-1.1-0.1
	c-0.4-0.1-0.7-0.3-1.1-0.5c-0.3-0.2-0.7-0.5-0.9-0.9c-0.3-0.4-0.5-0.8-0.7-1.3c-0.2-0.5-0.3-1.1-0.3-1.8c0-0.7,0.1-1.3,0.3-1.8
	c0.2-0.5,0.4-1,0.7-1.3c0.3-0.4,0.6-0.6,0.9-0.9c0.3-0.2,0.7-0.4,1.1-0.5c0.4-0.1,0.7-0.1,1.1-0.1c0.3,0,0.7,0,1.1,0.1
	c0.4,0.1,0.7,0.3,1.1,0.5c0.3,0.2,0.7,0.5,0.9,0.9c0.3,0.4,0.5,0.8,0.7,1.3c0.2,0.5,0.2,1.1,0.3,1.8c0,0.7-0.1,1.3-0.3,1.8
	c-0.2,0.5-0.4,1-0.7,1.3c-0.3,0.4-0.6,0.6-0.9,0.9c-0.3,0.2-0.7,0.4-1.1,0.5C264.7,103.6,264.3,103.6,264,103.6L264,103.6z
	 M274.8,107h4.5V94.8h5.3V107h4.5V91h-14.3V107L274.8,107z M291.9,107h4.5v-5.3h2.3c0.9,0,1.7-0.1,2.4-0.4c0.7-0.2,1.2-0.5,1.7-0.9
	c0.4-0.4,0.8-0.8,1.1-1.3c0.3-0.5,0.4-0.9,0.6-1.4c0.1-0.5,0.2-0.9,0.2-1.4c0-0.4,0-0.9-0.2-1.4c-0.1-0.5-0.3-1-0.6-1.4
	c-0.3-0.5-0.6-0.9-1.1-1.3c-0.4-0.4-1-0.7-1.7-0.9c-0.7-0.2-1.5-0.4-2.4-0.4h-6.7V107L291.9,107z M296.4,94.5h1.3
	c0.5,0,0.9,0.1,1.2,0.2c0.3,0.1,0.5,0.3,0.7,0.5c0.2,0.2,0.3,0.4,0.3,0.6c0,0.2,0.1,0.4,0.1,0.6c0,0.1,0,0.3,0,0.5
	c0,0.2-0.1,0.4-0.2,0.6c-0.1,0.2-0.4,0.4-0.7,0.5c-0.3,0.1-0.7,0.2-1.3,0.2h-1.3V94.5L296.4,94.5z M314.5,107.4
	c1.1,0,2.2-0.2,3.1-0.5c0.9-0.3,1.7-0.7,2.4-1.2c0.7-0.5,1.3-1.1,1.7-1.9c0.5-0.7,0.8-1.5,1-2.3c0.2-0.8,0.3-1.7,0.3-2.6
	c0-0.9-0.1-1.8-0.3-2.6c-0.2-0.8-0.6-1.6-1-2.3c-0.5-0.7-1-1.3-1.7-1.9c-0.7-0.5-1.5-0.9-2.4-1.2c-0.9-0.3-1.9-0.4-3.1-0.4
	c-1.1,0-2.2,0.2-3.1,0.4c-0.9,0.3-1.7,0.7-2.4,1.2c-0.7,0.5-1.3,1.1-1.7,1.9c-0.5,0.7-0.8,1.5-1,2.3c-0.2,0.8-0.3,1.7-0.3,2.6
	c0,0.9,0.1,1.8,0.4,2.6c0.2,0.8,0.6,1.6,1.1,2.3c0.5,0.7,1,1.3,1.7,1.9c0.7,0.5,1.5,0.9,2.4,1.2
	C312.3,107.3,313.3,107.4,314.5,107.4L314.5,107.4z M314.5,103.6c-0.3,0-0.7,0-1.1-0.1c-0.4-0.1-0.7-0.3-1.1-0.5
	c-0.3-0.2-0.7-0.5-0.9-0.9c-0.3-0.4-0.5-0.8-0.7-1.3c-0.2-0.5-0.3-1.1-0.3-1.8c0-0.7,0.1-1.3,0.3-1.8c0.2-0.5,0.4-1,0.7-1.3
	c0.3-0.4,0.6-0.6,0.9-0.9c0.3-0.2,0.7-0.4,1.1-0.5c0.4-0.1,0.7-0.1,1.1-0.1c0.3,0,0.7,0,1.1,0.1c0.4,0.1,0.7,0.3,1.1,0.5
	c0.3,0.2,0.7,0.5,0.9,0.9c0.3,0.4,0.5,0.8,0.7,1.3c0.2,0.5,0.2,1.1,0.3,1.8c0,0.7-0.1,1.3-0.3,1.8c-0.2,0.5-0.4,1-0.7,1.3
	c-0.3,0.4-0.6,0.6-0.9,0.9c-0.3,0.2-0.7,0.4-1.1,0.5C315.2,103.6,314.8,103.6,314.5,103.6L314.5,103.6z M325.2,91v16h4.5l6.1-9.6
	v9.6h4.3V91h-4.4l-6.2,9.6V91H325.2L325.2,91z M344.7,97.3v3.2h2.5c0.7,0,1.2,0.1,1.5,0.2c0.4,0.1,0.6,0.4,0.8,0.6s0.2,0.5,0.2,0.8
	c0,0.2,0,0.4-0.1,0.6c-0.1,0.2-0.2,0.4-0.4,0.6c-0.2,0.2-0.4,0.3-0.7,0.4c-0.3,0.1-0.7,0.2-1.2,0.2c-0.4,0-0.9-0.1-1.3-0.2
	c-0.4-0.2-0.9-0.4-1.3-0.6c-0.4-0.3-0.9-0.6-1.2-1l-1.9,3c0.6,0.5,1.2,0.9,1.7,1.2c0.5,0.3,1,0.6,1.5,0.7c0.5,0.2,1,0.3,1.5,0.4
	c0.5,0.1,1,0.1,1.6,0.1c0.9,0,1.7-0.1,2.5-0.3c0.8-0.2,1.5-0.5,2-0.9c0.6-0.4,1.1-0.9,1.4-1.5c0.3-0.6,0.5-1.3,0.5-2.1
	c0-0.6-0.1-1.1-0.3-1.5c-0.2-0.4-0.4-0.8-0.7-1.1c-0.3-0.3-0.6-0.5-1-0.7c-0.3-0.2-0.7-0.3-1.1-0.4v-0.1c0.5-0.2,1-0.5,1.4-0.8
	c0.4-0.4,0.7-0.8,0.9-1.3c0.2-0.5,0.3-1,0.3-1.5c0-0.7-0.1-1.3-0.4-1.8c-0.3-0.5-0.7-1-1.2-1.4c-0.5-0.4-1.2-0.7-1.9-1
	c-0.8-0.2-1.6-0.3-2.5-0.3c-0.7,0-1.3,0.1-1.9,0.2c-0.6,0.1-1.1,0.2-1.6,0.4c-0.5,0.2-0.9,0.3-1.2,0.5c-0.3,0.2-0.6,0.3-0.8,0.4
	l1.6,3.1c0.3-0.2,0.7-0.4,1-0.6c0.3-0.2,0.7-0.3,1-0.4c0.4-0.1,0.8-0.1,1.2-0.1c0.5,0,0.9,0.1,1.2,0.2c0.3,0.1,0.6,0.3,0.8,0.6
	c0.2,0.2,0.3,0.5,0.3,0.9c0,0.2,0,0.3-0.1,0.5c-0.1,0.2-0.2,0.4-0.3,0.5c-0.2,0.2-0.4,0.3-0.7,0.4c-0.3,0.1-0.7,0.2-1.3,0.2H344.7
	L344.7,97.3z M356.5,91v16h8.2c0.8,0,1.4-0.1,2-0.3c0.6-0.2,1.1-0.4,1.5-0.7c0.4-0.3,0.7-0.6,1-1c0.3-0.4,0.4-0.8,0.6-1.2
	c0.1-0.4,0.2-0.9,0.2-1.3c0-0.6-0.1-1.1-0.3-1.5c-0.2-0.4-0.4-0.8-0.6-1.1c-0.3-0.3-0.5-0.6-0.9-0.8c-0.3-0.2-0.6-0.4-0.9-0.5
	c-0.3-0.1-0.5-0.2-0.7-0.2v0c0.5-0.2,0.9-0.4,1.2-0.7c0.4-0.3,0.7-0.7,0.9-1.1c0.2-0.4,0.3-0.9,0.3-1.5c0-0.3,0-0.6-0.1-1
	c-0.1-0.4-0.2-0.7-0.4-1.1c-0.2-0.4-0.5-0.7-0.8-1s-0.8-0.5-1.4-0.7c-0.6-0.2-1.3-0.3-2.1-0.3H356.5L356.5,91z M361,97.3v-3.1h1.9
	c0.5,0,0.9,0.1,1.2,0.2c0.3,0.1,0.5,0.3,0.6,0.6c0.1,0.2,0.2,0.5,0.2,0.8c0,0.2,0,0.3-0.1,0.5c-0.1,0.2-0.1,0.3-0.3,0.5
	c-0.1,0.2-0.4,0.3-0.6,0.4c-0.3,0.1-0.6,0.1-1.1,0.2H361L361,97.3z M361,103.8v-3.3h2.1c0.1,0,0.3,0,0.5,0c0.2,0,0.4,0,0.6,0.1
	c0.2,0,0.4,0.1,0.6,0.2c0.2,0.1,0.3,0.3,0.5,0.5c0.1,0.2,0.2,0.5,0.2,0.8c0,0.3-0.1,0.6-0.2,0.8c-0.1,0.2-0.3,0.4-0.5,0.5
	c-0.2,0.1-0.4,0.2-0.6,0.3c-0.2,0-0.4,0.1-0.6,0.1c-0.2,0-0.4,0-0.5,0H361L361,103.8z M379.9,107.4c1.1,0,2.2-0.2,3.1-0.5
	c0.9-0.3,1.7-0.7,2.4-1.2c0.7-0.5,1.3-1.1,1.7-1.9c0.5-0.7,0.8-1.5,1-2.3c0.2-0.8,0.3-1.7,0.3-2.6c0-0.9-0.1-1.8-0.3-2.6
	c-0.2-0.8-0.6-1.6-1-2.3c-0.5-0.7-1-1.3-1.7-1.9c-0.7-0.5-1.5-0.9-2.4-1.2c-0.9-0.3-1.9-0.4-3.1-0.4c-1.1,0-2.2,0.2-3.1,0.4
	c-0.9,0.3-1.7,0.7-2.4,1.2c-0.7,0.5-1.3,1.1-1.7,1.9c-0.5,0.7-0.8,1.5-1,2.3c-0.2,0.8-0.3,1.7-0.3,2.6c0,0.9,0.1,1.8,0.4,2.6
	c0.2,0.8,0.6,1.6,1.1,2.3c0.5,0.7,1,1.3,1.7,1.9c0.7,0.5,1.5,0.9,2.4,1.2C377.8,107.3,378.8,107.4,379.9,107.4L379.9,107.4z
	 M379.9,103.6c-0.3,0-0.7,0-1.1-0.1c-0.4-0.1-0.7-0.3-1.1-0.5c-0.3-0.2-0.7-0.5-0.9-0.9c-0.3-0.4-0.5-0.8-0.7-1.3
	c-0.2-0.5-0.3-1.1-0.3-1.8c0-0.7,0.1-1.3,0.3-1.8c0.2-0.5,0.4-1,0.7-1.3c0.3-0.4,0.6-0.6,0.9-0.9c0.3-0.2,0.7-0.4,1.1-0.5
	c0.4-0.1,0.7-0.1,1.1-0.1c0.3,0,0.7,0,1.1,0.1c0.4,0.1,0.7,0.3,1.1,0.5c0.3,0.2,0.7,0.5,0.9,0.9c0.3,0.4,0.5,0.8,0.7,1.3
	c0.2,0.5,0.2,1.1,0.3,1.8c0,0.7-0.1,1.3-0.3,1.8c-0.2,0.5-0.4,1-0.7,1.3c-0.3,0.4-0.6,0.6-0.9,0.9c-0.3,0.2-0.7,0.4-1.1,0.5
	C380.6,103.6,380.3,103.6,379.9,103.6L379.9,103.6z M392.5,91v7c0,0.3,0,0.5,0,0.8c0,0.3,0,0.5,0,0.8c0,0.6-0.2,1.2-0.4,1.6
	c-0.2,0.5-0.4,0.8-0.8,1.1c-0.3,0.3-0.6,0.5-1,0.7c-0.4,0.1-0.7,0.2-1.1,0.2v7h3.8V107h9.2v3.2h3.8v-7h-1.9V91H392.5L392.5,91z
	 M396.6,94.8h3.2v8.3h-4.9c0.4-0.2,0.7-0.5,0.9-0.8c0.2-0.3,0.4-0.7,0.5-1c0.1-0.4,0.2-0.8,0.2-1.2c0-0.4,0.1-0.9,0.1-1.4V94.8
	L396.6,94.8z M419.6,106.3v-4.6c-0.3,0.3-0.6,0.6-1,0.8c-0.4,0.3-0.8,0.5-1.3,0.6c-0.5,0.2-1,0.3-1.5,0.3c-0.6,0-1.1-0.1-1.6-0.3
	c-0.5-0.2-0.9-0.5-1.3-0.8c-0.4-0.4-0.7-0.8-0.9-1.4c-0.2-0.5-0.3-1.2-0.3-1.9c0-0.6,0.1-1.2,0.3-1.8c0.2-0.6,0.5-1,0.8-1.5
	c0.4-0.4,0.8-0.8,1.3-1c0.5-0.2,1.1-0.4,1.7-0.4c0.5,0,0.9,0.1,1.3,0.2c0.4,0.1,0.8,0.3,1.1,0.5c0.3,0.2,0.6,0.4,0.8,0.6
	c0.2,0.2,0.4,0.4,0.6,0.6v-4.6c-0.5-0.3-0.9-0.5-1.4-0.7c-0.5-0.2-1-0.3-1.5-0.4c-0.5-0.1-1-0.1-1.5-0.1c-0.8,0-1.6,0.1-2.4,0.3
	c-0.8,0.2-1.5,0.6-2.2,1c-0.7,0.5-1.3,1-1.8,1.7c-0.5,0.7-0.9,1.5-1.2,2.4c-0.3,0.9-0.4,1.9-0.4,3c0,1.1,0.1,2.1,0.4,2.9
	c0.3,0.9,0.7,1.7,1.2,2.4c0.5,0.7,1.1,1.3,1.8,1.7c0.7,0.5,1.4,0.8,2.2,1.1c0.8,0.2,1.7,0.4,2.6,0.4c0.5,0,0.9,0,1.4-0.1
	c0.5-0.1,1-0.2,1.5-0.4C418.7,106.8,419.1,106.6,419.6,106.3L419.6,106.3z M424.1,107h4.5V94.8h3.5V91h-11.5v3.8h3.5V107L424.1,107z
	 M433.7,91v16h8.2c0.8,0,1.4-0.1,2-0.3c0.6-0.2,1.1-0.4,1.5-0.7c0.4-0.3,0.7-0.6,1-1c0.3-0.4,0.4-0.8,0.6-1.2
	c0.1-0.4,0.2-0.9,0.2-1.3c0-0.6-0.1-1.1-0.3-1.5c-0.2-0.4-0.4-0.8-0.6-1.1c-0.3-0.3-0.5-0.6-0.9-0.8c-0.3-0.2-0.6-0.4-0.9-0.5
	c-0.3-0.1-0.5-0.2-0.7-0.2v0c0.5-0.2,0.9-0.4,1.2-0.7c0.4-0.3,0.7-0.7,0.9-1.1c0.2-0.4,0.3-0.9,0.3-1.5c0-0.3,0-0.6-0.1-1
	c-0.1-0.4-0.2-0.7-0.4-1.1c-0.2-0.4-0.5-0.7-0.8-1c-0.4-0.3-0.8-0.5-1.4-0.7c-0.6-0.2-1.3-0.3-2.1-0.3H433.7L433.7,91z M438.2,97.3
	v-3.1h1.9c0.5,0,0.9,0.1,1.2,0.2c0.3,0.1,0.5,0.3,0.6,0.6c0.1,0.2,0.2,0.5,0.2,0.8c0,0.2,0,0.3-0.1,0.5c-0.1,0.2-0.1,0.3-0.3,0.5
	c-0.1,0.2-0.4,0.3-0.6,0.4c-0.3,0.1-0.6,0.1-1.1,0.2H438.2L438.2,97.3z M438.2,103.8v-3.3h2.1c0.1,0,0.3,0,0.5,0
	c0.2,0,0.4,0,0.6,0.1c0.2,0,0.4,0.1,0.6,0.2c0.2,0.1,0.3,0.3,0.5,0.5c0.1,0.2,0.2,0.5,0.2,0.8c0,0.3-0.1,0.6-0.2,0.8
	c-0.1,0.2-0.3,0.4-0.5,0.5c-0.2,0.1-0.4,0.2-0.6,0.3c-0.2,0-0.4,0.1-0.6,0.1c-0.2,0-0.4,0-0.5,0H438.2L438.2,103.8z M449.2,107h9.6
	v-3.8h-5.1v-2.6h4.6v-3.5h-4.6v-2.2h5.1V91h-9.6V107L449.2,107z M461.2,107h4.5v-6.4h5.4v6.4h4.5V91h-4.5v5.8h-5.4V91h-4.5V107
	L461.2,107z M478.5,107h4.5v-6.4h5.4v6.4h4.5V91h-4.5v5.8H483V91h-4.5V107L478.5,107z M495.8,107h6.8c0.3,0,0.6,0,1,0
	c0.4,0,0.8-0.1,1.3-0.2c0.5-0.1,0.9-0.2,1.4-0.4c0.5-0.2,0.9-0.5,1.3-0.8c0.4-0.4,0.7-0.8,0.9-1.4c0.2-0.6,0.4-1.2,0.4-2
	c0-0.8-0.1-1.5-0.4-2c-0.2-0.6-0.5-1-0.9-1.4c-0.4-0.4-0.8-0.6-1.3-0.8c-0.5-0.2-0.9-0.4-1.4-0.4c-0.5-0.1-0.9-0.1-1.3-0.2
	c-0.4,0-0.7,0-1,0h-2.4V91h-4.5V107L495.8,107z M500.3,103.8v-3.4h1.9c0.5,0,0.9,0,1.2,0.1c0.3,0.1,0.6,0.3,0.8,0.5
	c0.2,0.2,0.3,0.6,0.3,1c0,0.4-0.1,0.8-0.3,1c-0.2,0.2-0.4,0.4-0.8,0.5c-0.3,0.1-0.7,0.2-1.2,0.1H500.3L500.3,103.8z M509.9,107h4.5
	V91h-4.5V107L509.9,107z M517.3,91v16h4.5l6.1-9.6v9.6h4.3V91h-4.4l-6.2,9.6V91H517.3L517.3,91z M520.4,87.5c0.2,0.5,0.6,1,1,1.4
	c0.4,0.4,1,0.7,1.6,0.9c0.6,0.2,1.3,0.3,2,0.3c0.6,0,1.2-0.1,1.8-0.3c0.6-0.2,1.1-0.4,1.6-0.8s0.8-0.9,1.1-1.5l-2.6-1
	c-0.1,0.3-0.2,0.6-0.4,0.8c-0.2,0.2-0.3,0.3-0.5,0.4c-0.2,0.1-0.4,0.1-0.6,0.2c-0.2,0-0.3,0-0.4,0c-0.1,0-0.3,0-0.4,0
	c-0.2,0-0.4-0.1-0.6-0.2c-0.2-0.1-0.4-0.2-0.5-0.4c-0.2-0.2-0.3-0.4-0.4-0.8L520.4,87.5L520.4,87.5z M549.8,101.7l3,5.3h5.3
	l-5.9-8.6l5-7.4h-5.1l-2.4,4.3l-2.4-4.3H542l5.3,7.6l-5.9,8.4h5.1L549.8,101.7L549.8,101.7z M567.3,107.4c1.1,0,2.2-0.2,3.1-0.5
	c0.9-0.3,1.7-0.7,2.4-1.2c0.7-0.5,1.3-1.1,1.7-1.9c0.5-0.7,0.8-1.5,1-2.3c0.2-0.8,0.3-1.7,0.3-2.6c0-0.9-0.1-1.8-0.3-2.6
	c-0.2-0.8-0.6-1.6-1-2.3c-0.5-0.7-1-1.3-1.7-1.9c-0.7-0.5-1.5-0.9-2.4-1.2c-0.9-0.3-1.9-0.4-3.1-0.4c-1.1,0-2.2,0.2-3.1,0.4
	c-0.9,0.3-1.7,0.7-2.4,1.2c-0.7,0.5-1.3,1.1-1.7,1.9c-0.5,0.7-0.8,1.5-1,2.3c-0.2,0.8-0.3,1.7-0.3,2.6c0,0.9,0.1,1.8,0.4,2.6
	c0.2,0.8,0.6,1.6,1.1,2.3c0.5,0.7,1,1.3,1.7,1.9c0.7,0.5,1.5,0.9,2.4,1.2C565.1,107.3,566.1,107.4,567.3,107.4L567.3,107.4z
	 M567.3,103.6c-0.3,0-0.7,0-1.1-0.1c-0.4-0.1-0.7-0.3-1.1-0.5c-0.3-0.2-0.7-0.5-0.9-0.9c-0.3-0.4-0.5-0.8-0.7-1.3
	c-0.2-0.5-0.3-1.1-0.3-1.8c0-0.7,0.1-1.3,0.3-1.8c0.2-0.5,0.4-1,0.7-1.3c0.3-0.4,0.6-0.6,0.9-0.9c0.3-0.2,0.7-0.4,1.1-0.5
	c0.4-0.1,0.7-0.1,1.1-0.1c0.3,0,0.7,0,1.1,0.1c0.4,0.1,0.7,0.3,1.1,0.5c0.3,0.2,0.7,0.5,0.9,0.9c0.3,0.4,0.5,0.8,0.7,1.3
	c0.2,0.5,0.2,1.1,0.3,1.8c0,0.7-0.1,1.3-0.3,1.8c-0.2,0.5-0.4,1-0.7,1.3c-0.3,0.4-0.6,0.6-0.9,0.9c-0.3,0.2-0.7,0.4-1.1,0.5
	C568,103.6,567.6,103.6,567.3,103.6L567.3,103.6z M579.8,91v8.8c0,0.5,0,0.9,0,1.4c0,0.4-0.1,0.8-0.3,1.1c-0.1,0.3-0.4,0.6-0.7,0.7
	c-0.3,0.2-0.7,0.3-1.2,0.3c-0.2,0-0.3,0-0.5,0c-0.2,0-0.3-0.1-0.5-0.1v3.8c0.2,0.1,0.4,0.1,0.6,0.1c0.2,0,0.4,0,0.6,0.1
	c0.2,0,0.4,0,0.7,0c0.9,0,1.7-0.1,2.4-0.3c0.7-0.2,1.2-0.5,1.6-0.8c0.4-0.3,0.8-0.7,1-1.1c0.2-0.4,0.4-0.9,0.5-1.3
	c0.1-0.5,0.2-0.9,0.2-1.3c0-0.4,0-0.8,0-1.2v-6.3h3.2V107h4.5V91H579.8L579.8,91z M596.6,91v7c0,0.3,0,0.5,0,0.8c0,0.3,0,0.5,0,0.8
	c0,0.6-0.2,1.2-0.4,1.6c-0.2,0.5-0.4,0.8-0.8,1.1c-0.3,0.3-0.6,0.5-1,0.7c-0.4,0.1-0.7,0.2-1.1,0.2v7h3.8V107h9.2v3.2h3.8v-7h-1.9
	V91H596.6L596.6,91z M600.7,94.8h3.2v8.3H599c0.4-0.2,0.7-0.5,0.9-0.8c0.2-0.3,0.4-0.7,0.5-1c0.1-0.4,0.2-0.8,0.2-1.2
	c0-0.4,0.1-0.9,0.1-1.4V94.8L600.7,94.8z M611.9,91v16h4.5l6.1-9.6v9.6h4.3V91h-4.4l-6.2,9.6V91H611.9L611.9,91z M629.7,107h4.5
	v-6.4h5.4v6.4h4.5V91h-4.5v5.8h-5.4V91h-4.5V107L629.7,107z M647,107h4.5V94.8h5.1V91H647V107L647,107z"/>
</svg>
